<?xml version="1.0" encoding="UTF-8"?>
<svg id="OBJECTS" xmlns="http://www.w3.org/2000/svg" version="1.1" xmlns:xlink="http://www.w3.org/1999/xlink" viewBox="0 0 794.88 199.84">
  <!-- Generator: Adobe Illustrator 29.0.0, SVG Export Plug-In . SVG Version: 2.1.0 Build 186)  -->
  <defs>
    <style>
      .st0 {
        fill: url(#Sfumatura_senza_nome_2575);
      }

      .st1 {
        fill: url(#Sfumatura_senza_nome_471);
      }

      .st2 {
        fill: url(#Sfumatura_senza_nome_2577);
      }

      .st3 {
        fill: #fff;
      }

      .st3, .st4 {
        font-family: OpenSans-SemiBold, 'Open Sans';
        font-size: 76.57px;
        font-weight: 600;
      }

      .st5 {
        fill: url(#Sfumatura_senza_nome_257);
      }

      .st6 {
        fill: #2e2e4f;
      }

      .st7 {
        fill: url(#Sfumatura_senza_nome_4713);
      }

      .st8 {
        fill: url(#Sfumatura_senza_nome_25711);
      }

      .st9 {
        fill: url(#Sfumatura_senza_nome_4705);
      }

      .st10 {
        fill: url(#Sfumatura_senza_nome_25714);
      }

      .st11 {
        fill: url(#Sfumatura_senza_nome_25715);
      }

      .st12 {
        fill: url(#Sfumatura_senza_nome_470);
      }

      .st13 {
        fill: url(#Sfumatura_senza_nome_2576);
      }

      .st4, .st14 {
        fill: #4f4f4f;
      }

      .st15 {
        fill: url(#Sfumatura_senza_nome_25712);
      }

      .st16 {
        fill: url(#Sfumatura_senza_nome_47011);
      }

      .st17 {
        fill: url(#Sfumatura_senza_nome_2578);
      }

      .st18 {
        fill: url(#Sfumatura_senza_nome_4712);
      }

      .st19 {
        fill: url(#Sfumatura_senza_nome_2572);
      }

      .st20 {
        fill: url(#Sfumatura_senza_nome_4714);
      }

      .st21 {
        fill: url(#Sfumatura_senza_nome_47015);
      }

      .st22 {
        fill: url(#Sfumatura_senza_nome_4706);
      }

      .st23 {
        fill: url(#Sfumatura_senza_nome_25713);
      }

      .st24 {
        fill: #f2f2f2;
      }

      .st25 {
        fill: url(#Sfumatura_senza_nome_2571);
      }

      .st26 {
        fill: url(#Sfumatura_senza_nome_4716);
      }

      .st27 {
        fill: url(#Sfumatura_senza_nome_47012);
      }

      .st28 {
        fill: url(#Sfumatura_senza_nome_4707);
      }

      .st29 {
        fill: url(#Sfumatura_senza_nome_4702);
      }

      .st30 {
        fill: url(#Sfumatura_senza_nome_4703);
      }

      .st31 {
        fill: url(#Sfumatura_senza_nome_47010);
      }

      .st32 {
        fill: url(#Sfumatura_senza_nome_2579);
      }

      .st33 {
        fill: url(#Sfumatura_senza_nome_4715);
      }

      .st34 {
        fill: url(#Sfumatura_senza_nome_2574);
      }

      .st35 {
        fill: url(#Sfumatura_senza_nome_4711);
      }

      .st36 {
        fill: url(#Sfumatura_senza_nome_4701);
      }

      .st14 {
        font-family: AcuminPro-Medium, 'Acumin Pro';
        font-size: 98.03px;
        font-weight: 500;
      }

      .st37 {
        fill: url(#Sfumatura_senza_nome_4709);
      }

      .st38 {
        fill: url(#Sfumatura_senza_nome_47014);
      }

      .st39 {
        fill: url(#Sfumatura_senza_nome_4717);
      }

      .st40 {
        fill: url(#Sfumatura_senza_nome_4708);
      }

      .st41 {
        fill: url(#Sfumatura_senza_nome_25710);
      }

      .st42 {
        fill: url(#Sfumatura_senza_nome_47013);
      }

      .st43 {
        fill: url(#Sfumatura_senza_nome_4704);
      }

      .st44 {
        fill: url(#Sfumatura_senza_nome_2573);
      }
    </style>
    <linearGradient id="Sfumatura_senza_nome_470" data-name="Sfumatura senza nome 470" x1="-190.29" y1="488.04" x2="-190.29" y2="402.06" gradientTransform="translate(214.09 577.36) scale(1 -1)" gradientUnits="userSpaceOnUse">
      <stop offset="0" stop-color="#09f"/>
      <stop offset=".1" stop-color="#0eb1ff"/>
      <stop offset=".23" stop-color="#1fcdff"/>
      <stop offset=".38" stop-color="#2de3ff"/>
      <stop offset=".55" stop-color="#36f3ff"/>
      <stop offset=".73" stop-color="#3cfcff"/>
      <stop offset="1" stop-color="#3effff"/>
    </linearGradient>
    <linearGradient id="Sfumatura_senza_nome_257" data-name="Sfumatura senza nome 257" x1="-1545.74" y1="-1459.85" x2="-1545.74" y2="-1535.17" gradientTransform="translate(-1420.75 -1402.95) rotate(-90) scale(1 -1)" gradientUnits="userSpaceOnUse">
      <stop offset="0" stop-color="#7d33a9"/>
      <stop offset=".12" stop-color="#a832c4"/>
      <stop offset=".25" stop-color="#cd31db"/>
      <stop offset=".37" stop-color="#e831ec"/>
      <stop offset=".48" stop-color="#f931f6"/>
      <stop offset=".56" stop-color="#ff31fa"/>
    </linearGradient>
    <linearGradient id="Sfumatura_senza_nome_4701" data-name="Sfumatura senza nome 470" x1="-3164.3" y1="-520.99" x2="-3164.3" y2="-607.45" gradientTransform="translate(-2989.87 631.66) rotate(-180) scale(1 -1)" xlink:href="#Sfumatura_senza_nome_470"/>
    <linearGradient id="Sfumatura_senza_nome_2571" data-name="Sfumatura senza nome 257" x1="-2555.15" y1="1514.16" x2="-2555.15" y2="1438.84" gradientTransform="translate(-1355.03 2611.97) rotate(90) scale(1 -1)" xlink:href="#Sfumatura_senza_nome_257"/>
    <linearGradient id="Sfumatura_senza_nome_471" data-name="Sfumatura senza nome 471" x1="-3088.98" y1="-503.69" x2="-3088.98" y2="-559.55" gradientTransform="translate(3188.1 -431.57) scale(1 -1)" gradientUnits="userSpaceOnUse">
      <stop offset="0" stop-color="#8733ff"/>
      <stop offset="1" stop-color="#531db5"/>
    </linearGradient>
    <linearGradient id="Sfumatura_senza_nome_4702" data-name="Sfumatura senza nome 470" x1="-1011.07" y1="1301.68" x2="-1011.07" y2="1215.7" gradientTransform="translate(-1192.08 1035.55) rotate(90) scale(1 -1)" xlink:href="#Sfumatura_senza_nome_470"/>
    <linearGradient id="Sfumatura_senza_nome_2572" data-name="Sfumatura senza nome 257" x1="-732.09" y1="-639.07" x2="-732.09" y2="-714.39" gradientTransform="translate(788.22 -599.29) scale(1 -1)" xlink:href="#Sfumatura_senza_nome_257"/>
    <linearGradient id="Sfumatura_senza_nome_4703" data-name="Sfumatura senza nome 470" x1="-2343.52" y1="-1334.63" x2="-2343.52" y2="-1421.09" gradientTransform="translate(-1246.39 -2168.4) rotate(-90) scale(1 -1)" xlink:href="#Sfumatura_senza_nome_470"/>
    <linearGradient id="Sfumatura_senza_nome_2573" data-name="Sfumatura senza nome 257" x1="-3368.79" y1="693.38" x2="-3368.79" y2="618.06" gradientTransform="translate(-3226.69 -533.56) rotate(-180) scale(1 -1)" xlink:href="#Sfumatura_senza_nome_257"/>
    <linearGradient id="Sfumatura_senza_nome_4711" data-name="Sfumatura senza nome 471" x1="-2268.2" y1="-1317.33" x2="-2268.2" y2="-1373.19" gradientTransform="translate(2367.07 -1245.46) scale(1 -1)" xlink:href="#Sfumatura_senza_nome_471"/>
    <linearGradient id="Sfumatura_senza_nome_4704" data-name="Sfumatura senza nome 470" x1="-842.08" y1="554.21" x2="-842.08" y2="438.51" xlink:href="#Sfumatura_senza_nome_470"/>
    <linearGradient id="Sfumatura_senza_nome_2574" data-name="Sfumatura senza nome 257" x1="-1498.05" y1="-813.35" x2="-1498.05" y2="-914.7" xlink:href="#Sfumatura_senza_nome_257"/>
    <linearGradient id="Sfumatura_senza_nome_4705" data-name="Sfumatura senza nome 470" x1="-2564.58" y1="-579.78" x2="-2564.58" y2="-696.13" gradientTransform="translate(-2989.87 631.66) rotate(-180) scale(1 -1)" xlink:href="#Sfumatura_senza_nome_470"/>
    <linearGradient id="Sfumatura_senza_nome_2575" data-name="Sfumatura senza nome 257" x1="-2632.56" y1="909.15" x2="-2632.56" y2="807.79" gradientTransform="translate(-1355.03 2611.97) rotate(90) scale(1 -1)" xlink:href="#Sfumatura_senza_nome_257"/>
    <linearGradient id="Sfumatura_senza_nome_4712" data-name="Sfumatura senza nome 471" x1="-2463.23" y1="-556.5" x2="-2463.23" y2="-631.66" gradientTransform="translate(1936.59 -556.5) scale(1 -1)" xlink:href="#Sfumatura_senza_nome_471"/>
    <linearGradient id="Sfumatura_senza_nome_4706" data-name="Sfumatura senza nome 470" x1="-1099.65" y1="679.55" x2="-1099.65" y2="563.85" gradientTransform="translate(-1192.08 1035.55) rotate(90) scale(1 -1)" xlink:href="#Sfumatura_senza_nome_470"/>
    <linearGradient id="Sfumatura_senza_nome_2576" data-name="Sfumatura senza nome 257" x1="-1372.71" y1="-555.78" x2="-1372.71" y2="-657.13" gradientTransform="translate(788.22 -599.29) scale(1 -1)" xlink:href="#Sfumatura_senza_nome_257"/>
    <linearGradient id="Sfumatura_senza_nome_4707" data-name="Sfumatura senza nome 470" x1="-2307.01" y1="-705.11" x2="-2307.01" y2="-821.47" gradientTransform="translate(-1246.39 -2168.4) rotate(-90) scale(1 -1)" xlink:href="#Sfumatura_senza_nome_470"/>
    <linearGradient id="Sfumatura_senza_nome_2577" data-name="Sfumatura senza nome 257" x1="-2757.9" y1="651.58" x2="-2757.9" y2="550.23" gradientTransform="translate(-3226.69 -533.56) rotate(-180) scale(1 -1)" xlink:href="#Sfumatura_senza_nome_257"/>
    <linearGradient id="Sfumatura_senza_nome_4713" data-name="Sfumatura senza nome 471" x1="-2205.66" y1="-681.83" x2="-2205.66" y2="-757" gradientTransform="translate(1678.69 -682.16) scale(1 -1)" xlink:href="#Sfumatura_senza_nome_471"/>
    <linearGradient id="Sfumatura_senza_nome_4708" data-name="Sfumatura senza nome 470" x1="-1628.32" y1="554.21" x2="-1628.32" y2="438.51" xlink:href="#Sfumatura_senza_nome_470"/>
    <linearGradient id="Sfumatura_senza_nome_2578" data-name="Sfumatura senza nome 257" x1="-1498.05" y1="-27.11" x2="-1498.05" y2="-128.46" xlink:href="#Sfumatura_senza_nome_257"/>
    <linearGradient id="Sfumatura_senza_nome_4709" data-name="Sfumatura senza nome 470" x1="-1778.34" y1="-579.78" x2="-1778.34" y2="-696.13" gradientTransform="translate(-2989.87 631.66) rotate(-180) scale(1 -1)" xlink:href="#Sfumatura_senza_nome_470"/>
    <linearGradient id="Sfumatura_senza_nome_2579" data-name="Sfumatura senza nome 257" x1="-2632.56" y1="122.91" x2="-2632.56" y2="21.55" gradientTransform="translate(-1355.03 2611.97) rotate(90) scale(1 -1)" xlink:href="#Sfumatura_senza_nome_257"/>
    <linearGradient id="Sfumatura_senza_nome_4714" data-name="Sfumatura senza nome 471" x1="-1676.99" y1="-556.5" x2="-1676.99" y2="-631.66" gradientTransform="translate(364.11 -556.5) scale(1 -1)" xlink:href="#Sfumatura_senza_nome_471"/>
    <linearGradient id="Sfumatura_senza_nome_47010" data-name="Sfumatura senza nome 470" x1="-1099.65" y1="-106.69" x2="-1099.65" y2="-222.39" gradientTransform="translate(-1192.08 1035.55) rotate(90) scale(1 -1)" xlink:href="#Sfumatura_senza_nome_470"/>
    <linearGradient id="Sfumatura_senza_nome_25710" data-name="Sfumatura senza nome 257" x1="-2158.95" y1="-555.78" x2="-2158.95" y2="-657.13" gradientTransform="translate(788.22 -599.29) scale(1 -1)" xlink:href="#Sfumatura_senza_nome_257"/>
    <linearGradient id="Sfumatura_senza_nome_47011" data-name="Sfumatura senza nome 470" x1="-2307.01" y1="81.13" x2="-2307.01" y2="-35.23" gradientTransform="translate(-1246.39 -2168.4) rotate(-90) scale(1 -1)" xlink:href="#Sfumatura_senza_nome_470"/>
    <linearGradient id="Sfumatura_senza_nome_25711" data-name="Sfumatura senza nome 257" x1="-1971.66" y1="651.58" x2="-1971.66" y2="550.23" gradientTransform="translate(-3226.69 -533.56) rotate(-180) scale(1 -1)" xlink:href="#Sfumatura_senza_nome_257"/>
    <linearGradient id="Sfumatura_senza_nome_4715" data-name="Sfumatura senza nome 471" x1="-2205.66" y1="104.41" x2="-2205.66" y2="29.24" gradientTransform="translate(892.45 104.08) scale(1 -1)" xlink:href="#Sfumatura_senza_nome_471"/>
    <linearGradient id="Sfumatura_senza_nome_47012" data-name="Sfumatura senza nome 470" x1="-1882.26" y1="-229.32" x2="-1882.26" y2="-236.34" xlink:href="#Sfumatura_senza_nome_470"/>
    <linearGradient id="Sfumatura_senza_nome_25712" data-name="Sfumatura senza nome 257" x1="-2213.99" y1="246.17" x2="-2213.99" y2="240.01" xlink:href="#Sfumatura_senza_nome_257"/>
    <linearGradient id="Sfumatura_senza_nome_47013" data-name="Sfumatura senza nome 470" x1="-1334.01" y1="176.76" x2="-1334.01" y2="169.69" gradientTransform="translate(-2989.87 631.66) rotate(-180) scale(1 -1)" xlink:href="#Sfumatura_senza_nome_470"/>
    <linearGradient id="Sfumatura_senza_nome_25713" data-name="Sfumatura senza nome 257" x1="-1807.95" y1="-302.08" x2="-1807.95" y2="-308.24" gradientTransform="translate(-1355.03 2611.97) rotate(90) scale(1 -1)" xlink:href="#Sfumatura_senza_nome_257"/>
    <linearGradient id="Sfumatura_senza_nome_4716" data-name="Sfumatura senza nome 471" x1="-1327.85" y1="178.17" x2="-1327.85" y2="173.61" gradientTransform="translate(-334.16 983.44) scale(1 -1)" xlink:href="#Sfumatura_senza_nome_471"/>
    <linearGradient id="Sfumatura_senza_nome_47014" data-name="Sfumatura senza nome 470" x1="-234.18" y1="-469.08" x2="-234.18" y2="-476.1" gradientTransform="translate(-1192.08 1035.55) rotate(90) scale(1 -1)" xlink:href="#Sfumatura_senza_nome_470"/>
    <linearGradient id="Sfumatura_senza_nome_25714" data-name="Sfumatura senza nome 257" x1="-2453.75" y1="-1401.91" x2="-2453.75" y2="-1408.07" gradientTransform="translate(788.22 -599.29) scale(1 -1)" xlink:href="#Sfumatura_senza_nome_257"/>
    <linearGradient id="Sfumatura_senza_nome_47015" data-name="Sfumatura senza nome 470" x1="-2982.09" y1="416.52" x2="-2982.09" y2="409.45" gradientTransform="translate(-1246.39 -2168.4) rotate(-90) scale(1 -1)" xlink:href="#Sfumatura_senza_nome_470"/>
    <linearGradient id="Sfumatura_senza_nome_25715" data-name="Sfumatura senza nome 257" x1="-1568.19" y1="1346" x2="-1568.19" y2="1339.84" gradientTransform="translate(-3226.69 -533.56) rotate(-180) scale(1 -1)" xlink:href="#Sfumatura_senza_nome_257"/>
    <linearGradient id="Sfumatura_senza_nome_4717" data-name="Sfumatura senza nome 471" x1="-2975.93" y1="417.93" x2="-2975.93" y2="413.37" gradientTransform="translate(1313.9 1223.18) scale(1 -1)" xlink:href="#Sfumatura_senza_nome_471"/>
  </defs>
  <g>
    <text class="st14" transform="translate(205.32 132.1)"><tspan x="0" y="0">Crypto</tspan></text>
    <text class="st14" transform="translate(520.22 132.1)"><tspan x="0" y="0">Board</tspan></text>
    <g>
      <g>
        <path class="st12" d="M39.1,72.12h0c-16.9,0-30.61,13.7-30.61,30.61v24.76c0,16.9,13.7,30.61,30.61,30.61h0v-85.98Z"/>
        <path class="st5" d="M39.1,127.49v30.61h44.71c16.9,0,30.61-13.7,30.61-30.61H39.1Z"/>
        <path class="st36" d="M159.13,127.97c16.9,0,30.61-13.7,30.61-30.61v-25.25c0-16.9-13.7-30.61-30.61-30.61h0v86.46Z"/>
        <path class="st25" d="M159.13,72.12v-30.61h-44.71c-16.9,0-30.61,13.7-30.61,30.61h75.32Z"/>
        <rect class="st1" x="83.81" y="72.12" width="30.61" height="55.86" transform="translate(198.23 200.09) rotate(180)"/>
      </g>
      <g>
        <path class="st29" d="M126.8,39.79h0c0-16.9-13.7-30.61-30.61-30.61h-24.76c-16.9,0-30.61,13.7-30.61,30.61h85.98Z"/>
        <path class="st19" d="M71.43,39.79h-30.61v44.71c0,16.9,13.7,30.61,30.61,30.61V39.79Z"/>
        <path class="st30" d="M70.94,159.81c0,16.9,13.7,30.61,30.61,30.61h25.25c16.9,0,30.61-13.7,30.61-30.61h-86.46Z"/>
        <path class="st44" d="M126.8,159.81h30.61v-44.71c0-16.9-13.7-30.61-30.61-30.61v75.32Z"/>
        <rect class="st35" x="83.57" y="71.87" width="30.61" height="55.86" transform="translate(-.93 198.67) rotate(-90)"/>
      </g>
    </g>
  </g>
  <g>
    <rect class="st24" x="-899.48" y="-121.43" width="763.2" height="511.07"/>
    <text class="st4" transform="translate(-758.35 241.19)"><tspan x="0" y="0">CryptoBoard</tspan></text>
    <g>
      <g>
        <path class="st43" d="M-607.4,0h0c-22.75,0-41.19,18.44-41.19,41.19v33.32c0,22.75,18.44,41.19,41.19,41.19h0V0Z"/>
        <path class="st34" d="M-607.4,74.51v41.19h60.16c22.75,0,41.19-18.44,41.19-41.19h-101.35Z"/>
        <path class="st9" d="M-445.88,75.17c22.75,0,41.19-18.44,41.19-41.19V0c0-22.75-18.44-41.19-41.19-41.19h0v116.35Z"/>
        <path class="st0" d="M-445.88,0v-41.19h-60.16c-22.75,0-41.19,18.44-41.19,41.19h101.35Z"/>
        <rect class="st18" x="-547.23" width="41.19" height="75.17" transform="translate(-1053.28 75.17) rotate(180)"/>
      </g>
      <g>
        <path class="st22" d="M-489.39-43.5h0c0-22.75-18.44-41.19-41.19-41.19h-33.32c-22.75,0-41.19,18.44-41.19,41.19h115.7Z"/>
        <path class="st13" d="M-563.9-43.5h-41.19V16.66c0,22.75,18.44,41.19,41.19,41.19V-43.5Z"/>
        <path class="st28" d="M-564.55,118.01c0,22.75,18.44,41.19,41.19,41.19h33.98c22.75,0,41.19-18.44,41.19-41.19h-116.35Z"/>
        <path class="st2" d="M-489.39,118.01h41.19v-60.16c0-22.75-18.44-41.19-41.19-41.19v101.35Z"/>
        <rect class="st7" x="-547.56" y="-.33" width="41.19" height="75.17" transform="translate(-564.22 -489.72) rotate(-90)"/>
      </g>
    </g>
  </g>
  <g>
    <rect class="st6" x="-1685.72" y="-121.43" width="763.2" height="511.07"/>
    <text class="st3" transform="translate(-1544.6 241.19)"><tspan x="0" y="0">CryptoBoard</tspan></text>
    <g>
      <g>
        <path class="st40" d="M-1393.64,0h0c-22.75,0-41.19,18.44-41.19,41.19v33.32c0,22.75,18.44,41.19,41.19,41.19h0V0Z"/>
        <path class="st17" d="M-1393.64,74.51v41.19h60.16c22.75,0,41.19-18.44,41.19-41.19h-101.35Z"/>
        <path class="st37" d="M-1232.12,75.17c22.75,0,41.19-18.44,41.19-41.19V0c0-22.75-18.44-41.19-41.19-41.19h0v116.35Z"/>
        <path class="st32" d="M-1232.12,0v-41.19h-60.16c-22.75,0-41.19,18.44-41.19,41.19h101.35Z"/>
        <rect class="st20" x="-1333.47" width="41.19" height="75.17" transform="translate(-2625.76 75.17) rotate(180)"/>
      </g>
      <g>
        <path class="st31" d="M-1275.63-43.5h0c0-22.75-18.44-41.19-41.19-41.19h-33.32c-22.75,0-41.19,18.44-41.19,41.19h115.7Z"/>
        <path class="st41" d="M-1350.14-43.5h-41.19V16.66c0,22.75,18.44,41.19,41.19,41.19V-43.5Z"/>
        <path class="st16" d="M-1350.79,118.01c0,22.75,18.44,41.19,41.19,41.19h33.98c22.75,0,41.19-18.44,41.19-41.19h-116.35Z"/>
        <path class="st8" d="M-1275.63,118.01h41.19v-60.16c0-22.75-18.44-41.19-41.19-41.19v101.35Z"/>
        <rect class="st33" x="-1333.8" y="-.33" width="41.19" height="75.17" transform="translate(-1350.46 -1275.96) rotate(-90)"/>
      </g>
    </g>
  </g>
  <g>
    <path class="st27" d="M-1666.92,805.27h0c-1.38,0-2.5,1.12-2.5,2.5v2.02c0,1.38,1.12,2.5,2.5,2.5h0v-7.03Z"/>
    <path class="st15" d="M-1666.92,809.79v2.5h3.65c1.38,0,2.5-1.12,2.5-2.5h-6.16Z"/>
    <path class="st42" d="M-1657.11,809.83c1.38,0,2.5-1.12,2.5-2.5v-2.06c0-1.38-1.12-2.5-2.5-2.5h0v7.07Z"/>
    <path class="st23" d="M-1657.11,805.27v-2.5h-3.65c-1.38,0-2.5,1.12-2.5,2.5h6.16Z"/>
    <rect class="st26" x="-1663.27" y="805.27" width="2.5" height="4.57" transform="translate(-3324.03 1615.1) rotate(180)"/>
  </g>
  <g>
    <path class="st38" d="M-1659.75,802.62h0c0-1.38-1.12-2.5-2.5-2.5h-2.02c-1.38,0-2.5,1.12-2.5,2.5h7.03Z"/>
    <path class="st10" d="M-1664.28,802.62h-2.5v3.65c0,1.38,1.12,2.5,2.5,2.5v-6.16Z"/>
    <path class="st21" d="M-1664.32,812.44c0,1.38,1.12,2.5,2.5,2.5h2.06c1.38,0,2.5-1.12,2.5-2.5h-7.07Z"/>
    <path class="st11" d="M-1659.75,812.44h2.5v-3.65c0-1.38-1.12-2.5-2.5-2.5v6.16Z"/>
    <rect class="st39" x="-1663.29" y="805.25" width="2.5" height="4.57" transform="translate(-2469.57 -854.5) rotate(-90)"/>
  </g>
</svg>